<?xml version="1.0" encoding="UTF-8" standalone="no"?>
<svg
   width="160mm"
   height="105.71913mm"
   viewBox="0 0 453.54332 299.67627"
   version="1.1"
   id="svg167"
   sodipodi:docname="fig25_cp29a_correlation.svg"
   inkscape:version="1.4.3 (0d15f75042, 2025-12-25)"
   inkscape:export-filename="fig13.png"
   inkscape:export-xdpi="1200"
   inkscape:export-ydpi="1200"
   xmlns:inkscape="http://www.inkscape.org/namespaces/inkscape"
   xmlns:sodipodi="http://sodipodi.sourceforge.net/DTD/sodipodi-0.dtd"
   xmlns="http://www.w3.org/2000/svg"
   xmlns:svg="http://www.w3.org/2000/svg">
  <defs
     id="defs167" />
  <sodipodi:namedview
     id="namedview167"
     pagecolor="#cacaca"
     bordercolor="#000000"
     borderopacity="1"
     inkscape:showpageshadow="0"
     inkscape:pageopacity="0"
     inkscape:pagecheckerboard="1"
     inkscape:deskcolor="#848484"
     inkscape:document-units="pt"
     inkscape:zoom="1.5397047"
     inkscape:cx="211.40417"
     inkscape:cy="258.16639"
     inkscape:window-width="1699"
     inkscape:window-height="1342"
     inkscape:window-x="0"
     inkscape:window-y="0"
     inkscape:window-maximized="0"
     inkscape:current-layer="g167" />
  <g
     class="svglite"
     id="g167">
    <defs
       id="defs1">
      <style
         type="text/css"
         id="style1"><![CDATA[
    .svglite line, .svglite polyline, .svglite polygon, .svglite path, .svglite rect, .svglite circle {
      fill: none;
      stroke: #000000;
      stroke-linecap: round;
      stroke-linejoin: round;
      stroke-miterlimit: 10.00;
    }
    .svglite text {
      white-space: pre;
    }
    .svglite g.glyphgroup path {
      fill: inherit;
      stroke: none;
    }
  ]]></style>
    </defs>
    <defs
       id="defs2" />
    <defs
       id="defs4" />
    <rect
       x="36.360001"
       y="14.83"
       width="192.03"
       height="101.84"
       style="fill:#ffffff;stroke:none;stroke-width:1.07"
       id="rect5" />
    <polyline
       points="37.59,103.85 39.80,103.39 42.01,102.93 44.22,102.47 46.43,102.01 48.64,101.55 50.85,101.09 53.06,100.63 55.27,100.17 57.48,99.71 59.69,99.25 61.90,98.80 64.11,98.34 66.32,97.88 68.53,97.42 70.74,96.96 72.95,96.50 75.16,96.04 77.37,95.58 79.58,95.12 81.79,94.66 84.00,94.20 86.21,93.74 88.42,93.28 90.63,92.82 92.84,92.36 95.05,91.90 97.26,91.44 99.47,90.98 101.68,90.52 103.89,90.06 106.10,89.60 108.31,89.14 110.52,88.68 112.73,88.22 114.94,87.76 117.15,87.30 119.36,86.84 121.57,86.38 123.78,85.92 125.99,85.46 128.20,85.00 130.41,84.54 132.61,84.08 134.82,83.62 137.03,83.16 139.24,82.70 141.45,82.24 143.66,81.78 145.87,81.32 148.08,80.86 150.29,80.40 152.50,79.95 154.71,79.49 156.92,79.03 159.13,78.57 161.34,78.11 163.55,77.65 165.76,77.19 167.97,76.73 170.18,76.27 172.39,75.81 174.60,75.35 176.81,74.89 179.02,74.43 181.23,73.97 183.44,73.51 185.65,73.05 187.86,72.59 190.07,72.13 192.28,71.67 194.49,71.21 196.70,70.75 198.91,70.29 201.12,69.83 203.33,69.37 205.54,68.91 207.75,68.45 209.96,67.99 212.17,67.53 "
       style="stroke:#4d4d4d;stroke-width:0.85;stroke-linecap:butt"
       id="polyline5"
       transform="translate(7.5)" />
    <circle
       cx="53.610001"
       cy="110.16"
       r="1.63"
       style="fill:#0099ff;stroke:#0099ff;stroke-width:0.71"
       id="circle5" />
    <circle
       cx="45.09"
       cy="108.2"
       r="1.63"
       style="fill:#0066cc;stroke:#0066cc;stroke-width:0.71"
       id="circle6" />
    <circle
       cx="47.82"
       cy="104.67"
       r="1.63"
       style="fill:#0099ff;stroke:#0099ff;stroke-width:0.71"
       id="circle7" />
    <circle
       cx="55.439999"
       cy="106.1"
       r="1.63"
       style="fill:#009900;stroke:#009900;stroke-width:0.71"
       id="circle8" />
    <circle
       cx="53.650002"
       cy="102.25"
       r="1.63"
       style="fill:#0099ff;stroke:#0099ff;stroke-width:0.71"
       id="circle9" />
    <circle
       cx="65.619995"
       cy="112.03"
       r="1.63"
       style="fill:#cc6633;stroke:#cc6633;stroke-width:0.71"
       id="circle10" />
    <circle
       cx="74.160004"
       cy="76.279999"
       r="1.63"
       style="fill:#3399cc;stroke:#3399cc;stroke-width:0.71"
       id="circle11" />
    <circle
       cx="69.800003"
       cy="94.559998"
       r="1.63"
       style="fill:#0066cc;stroke:#0066cc;stroke-width:0.71"
       id="circle12" />
    <circle
       cx="83.220001"
       cy="105.19"
       r="1.63"
       style="fill:#cc6633;stroke:#cc6633;stroke-width:0.71"
       id="circle13" />
    <circle
       cx="104.31"
       cy="95.830002"
       r="1.63"
       style="fill:#ff9933;stroke:#ff9933;stroke-width:0.71"
       id="circle14" />
    <circle
       cx="120.82"
       cy="73.199997"
       r="1.63"
       style="fill:#006600;stroke:#006600;stroke-width:0.71"
       id="circle15" />
    <circle
       cx="140.83"
       cy="54.43"
       r="1.63"
       style="fill:#009900;stroke:#009900;stroke-width:0.71"
       id="circle16" />
    <circle
       cx="138.67"
       cy="88.75"
       r="1.63"
       style="fill:#ff6600;stroke:#ff6600;stroke-width:0.71"
       id="circle17" />
    <circle
       cx="156.88"
       cy="80.970001"
       r="1.63"
       style="fill:#ff6600;stroke:#ff6600;stroke-width:0.71"
       id="circle18" />
    <circle
       cx="189.62"
       cy="77.629997"
       r="1.63"
       style="fill:#cc6633;stroke:#cc6633;stroke-width:0.71"
       id="circle19" />
    <circle
       cx="185.78"
       cy="82.339996"
       r="1.63"
       style="fill:#0099ff;stroke:#0099ff;stroke-width:0.71"
       id="circle20" />
    <circle
       cx="219.67"
       cy="67.650002"
       r="1.63"
       style="fill:#336633;stroke:#336633;stroke-width:0.71"
       id="circle21" />
    <circle
       cx="218.98"
       cy="73.190002"
       r="1.63"
       style="fill:#336633;stroke:#336633;stroke-width:0.71"
       id="circle22" />
    <circle
       cx="213.34"
       cy="72.529999"
       r="1.63"
       style="fill:#ff6600;stroke:#ff6600;stroke-width:0.71"
       id="circle23" />
    <text
       x="224.72705"
       y="22.984453"
       text-anchor="end"
       style="font-style:normal;font-variant:normal;font-weight:normal;font-stretch:normal;font-size:9px;font-family:'STIX Two Text';-inkscape-font-specification:'STIX Two Text'"
       id="text23">ρ = 0.82</text>
    <rect
       x="36.360001"
       y="14.83"
       width="192.03"
       height="101.84"
       style="stroke:#333333;stroke-width:0.25;stroke-dasharray:none"
       id="rect23" />
    <defs
       id="defs24" />
    <rect
       x="36.360001"
       y="141.60001"
       width="192.03"
       height="101.84"
       style="fill:#ffffff;stroke:none;stroke-width:1.07"
       id="rect25" />
    <polyline
       points="37.59,212.02 39.65,211.50 41.71,210.99 43.78,210.48 45.84,209.96 47.90,209.45 49.96,208.93 52.02,208.42 54.08,207.90 56.14,207.39 58.20,206.87 60.26,206.36 62.32,205.84 64.38,205.33 66.45,204.82 68.51,204.30 70.57,203.79 72.63,203.27 74.69,202.76 76.75,202.24 78.81,201.73 80.87,201.21 82.93,200.70 84.99,200.18 87.06,199.67 89.12,199.16 91.18,198.64 93.24,198.13 95.30,197.61 97.36,197.10 99.42,196.58 101.48,196.07 103.54,195.55 105.60,195.04 107.66,194.52 109.73,194.01 111.79,193.49 113.85,192.98 115.91,192.47 117.97,191.95 120.03,191.44 122.09,190.92 124.15,190.41 126.21,189.89 128.27,189.38 130.33,188.86 132.40,188.35 134.46,187.83 136.52,187.32 138.58,186.81 140.64,186.29 142.70,185.78 144.76,185.26 146.82,184.75 148.88,184.23 150.94,183.72 153.01,183.20 155.07,182.69 157.13,182.17 159.19,181.66 161.25,181.14 163.31,180.63 165.37,180.12 167.43,179.60 169.49,179.09 171.55,178.57 173.61,178.06 175.68,177.54 177.74,177.03 179.80,176.51 181.86,176.00 183.92,175.48 185.98,174.97 188.04,174.46 190.10,173.94 192.16,173.43 194.22,172.91 196.28,172.40 198.35,171.88 200.41,171.37 "
       style="stroke:#4d4d4d;stroke-width:0.85;stroke-linecap:butt"
       id="polyline25"
       transform="translate(7.5)" />
    <circle
       cx="53.040001"
       cy="238.81"
       r="1.63"
       style="fill:#0099ff;stroke:#0099ff;stroke-width:0.71"
       id="circle25" />
    <circle
       cx="45.09"
       cy="207.39999"
       r="1.63"
       style="fill:#0066cc;stroke:#0066cc;stroke-width:0.71"
       id="circle26" />
    <circle
       cx="47.639999"
       cy="234.06"
       r="1.63"
       style="fill:#0099ff;stroke:#0099ff;stroke-width:0.71"
       id="circle27" />
    <circle
       cx="54.740002"
       cy="212.41"
       r="1.63"
       style="fill:#009900;stroke:#009900;stroke-width:0.71"
       id="circle28" />
    <circle
       cx="53.080002"
       cy="220.5"
       r="1.63"
       style="fill:#0099ff;stroke:#0099ff;stroke-width:0.71"
       id="circle29" />
    <circle
       cx="64.240005"
       cy="227.72"
       r="1.63"
       style="fill:#cc6633;stroke:#cc6633;stroke-width:0.71"
       id="circle30" />
    <circle
       cx="72.199997"
       cy="146.23"
       r="1.63"
       style="fill:#3399cc;stroke:#3399cc;stroke-width:0.71"
       id="circle31" />
    <circle
       cx="68.130005"
       cy="191.36"
       r="1.63"
       style="fill:#0066cc;stroke:#0066cc;stroke-width:0.71"
       id="circle32" />
    <circle
       cx="80.650002"
       cy="225.28999"
       r="1.63"
       style="fill:#cc6633;stroke:#cc6633;stroke-width:0.71"
       id="circle33" />
    <circle
       cx="100.32"
       cy="189.50999"
       r="1.63"
       style="fill:#ff9933;stroke:#ff9933;stroke-width:0.71"
       id="circle34" />
    <circle
       cx="115.72"
       cy="164.75"
       r="1.63"
       style="fill:#006600;stroke:#006600;stroke-width:0.71"
       id="circle35" />
    <circle
       cx="134.38"
       cy="146.91"
       r="1.63"
       style="fill:#009900;stroke:#009900;stroke-width:0.71"
       id="circle36" />
    <circle
       cx="132.37"
       cy="202.21001"
       r="1.63"
       style="fill:#ff6600;stroke:#ff6600;stroke-width:0.71"
       id="circle37" />
    <circle
       cx="149.34"
       cy="193.73"
       r="1.63"
       style="fill:#ff6600;stroke:#ff6600;stroke-width:0.71"
       id="circle38" />
    <circle
       cx="179.88"
       cy="173.64"
       r="1.63"
       style="fill:#cc6633;stroke:#cc6633;stroke-width:0.71"
       id="circle39" />
    <circle
       cx="176.3"
       cy="193.13"
       r="1.63"
       style="fill:#0099ff;stroke:#0099ff;stroke-width:0.71"
       id="circle40" />
    <circle
       cx="207.91"
       cy="177.92"
       r="1.63"
       style="fill:#336633;stroke:#336633;stroke-width:0.71"
       id="circle41" />
    <circle
       cx="207.27"
       cy="172.53999"
       r="1.63"
       style="fill:#336633;stroke:#336633;stroke-width:0.71"
       id="circle42" />
    <circle
       cx="202"
       cy="188.75"
       r="1.63"
       style="fill:#ff6600;stroke:#ff6600;stroke-width:0.71"
       id="circle43" />
    <text
       x="224.68893"
       y="149.75446"
       text-anchor="end"
       style="font-style:normal;font-variant:normal;font-weight:normal;font-stretch:normal;font-size:9px;font-family:'STIX Two Text';-inkscape-font-specification:'STIX Two Text'"
       id="text43">ρ = 0.66</text>
    <rect
       x="36.360001"
       y="141.60001"
       width="192.03"
       height="101.84"
       style="stroke:#333333;stroke-width:0.25;stroke-dasharray:none"
       id="rect43" />
    <defs
       id="defs44" />
    <rect
       x="255.17"
       y="14.83"
       width="192.03"
       height="101.84"
       style="fill:#ffffff;stroke:none;stroke-width:1.07"
       id="rect45" />
    <polyline
       points="250.40,95.05 252.61,94.77 254.82,94.49 257.03,94.20 259.24,93.92 261.45,93.64 263.66,93.35 265.87,93.07 268.07,92.78 270.28,92.50 272.49,92.22 274.70,91.93 276.91,91.65 279.12,91.36 281.33,91.08 283.54,90.80 285.75,90.51 287.96,90.23 290.17,89.95 292.38,89.66 294.59,89.38 296.80,89.09 299.01,88.81 301.22,88.53 303.43,88.24 305.64,87.96 307.85,87.68 310.06,87.39 312.27,87.11 314.48,86.82 316.69,86.54 318.90,86.26 321.11,85.97 323.32,85.69 325.53,85.40 327.74,85.12 329.95,84.84 332.16,84.55 334.37,84.27 336.58,83.99 338.79,83.70 341.00,83.42 343.21,83.13 345.42,82.85 347.63,82.57 349.84,82.28 352.05,82.00 354.26,81.71 356.47,81.43 358.68,81.15 360.89,80.86 363.10,80.58 365.31,80.30 367.52,80.01 369.73,79.73 371.94,79.44 374.15,79.16 376.36,78.88 378.57,78.59 380.78,78.31 382.99,78.02 385.20,77.74 387.41,77.46 389.61,77.17 391.82,76.89 394.03,76.61 396.24,76.32 398.45,76.04 400.66,75.75 402.87,75.47 405.08,75.19 407.29,74.90 409.50,74.62 411.71,74.33 413.92,74.05 416.13,73.77 418.34,73.48 420.55,73.20 422.76,72.92 424.97,72.63 "
       style="stroke:#4d4d4d;stroke-width:0.85;stroke-linecap:butt"
       id="polyline45"
       transform="translate(13.5)" />
    <circle
       cx="272.42001"
       cy="107.7"
       r="1.63"
       style="fill:#0099ff;stroke:#0099ff;stroke-width:0.71"
       id="circle45" />
    <circle
       cx="263.89999"
       cy="94.559998"
       r="1.63"
       style="fill:#0066cc;stroke:#0066cc;stroke-width:0.71"
       id="circle46" />
    <circle
       cx="266.63"
       cy="106.69"
       r="1.63"
       style="fill:#0099ff;stroke:#0099ff;stroke-width:0.71"
       id="circle47" />
    <circle
       cx="274.23999"
       cy="103.55"
       r="1.63"
       style="fill:#009900;stroke:#009900;stroke-width:0.71"
       id="circle48" />
    <circle
       cx="272.45999"
       cy="103.76"
       r="1.63"
       style="fill:#0099ff;stroke:#0099ff;stroke-width:0.71"
       id="circle49" />
    <circle
       cx="284.42001"
       cy="112.03"
       r="1.63"
       style="fill:#cc6633;stroke:#cc6633;stroke-width:0.71"
       id="circle50" />
    <circle
       cx="292.95999"
       cy="33.790001"
       r="1.63"
       style="fill:#3399cc;stroke:#3399cc;stroke-width:0.71"
       id="circle51" />
    <circle
       cx="288.60001"
       cy="85.110001"
       r="1.63"
       style="fill:#0066cc;stroke:#0066cc;stroke-width:0.71"
       id="circle52" />
    <circle
       cx="302.01999"
       cy="106.53"
       r="1.63"
       style="fill:#cc6633;stroke:#cc6633;stroke-width:0.71"
       id="circle53" />
    <circle
       cx="323.12"
       cy="86.040001"
       r="1.63"
       style="fill:#ff9933;stroke:#ff9933;stroke-width:0.71"
       id="circle54" />
    <circle
       cx="339.63"
       cy="66.339996"
       r="1.63"
       style="fill:#006600;stroke:#006600;stroke-width:0.71"
       id="circle55" />
    <circle
       cx="359.63"
       cy="44.259998"
       r="1.63"
       style="fill:#009900;stroke:#009900;stroke-width:0.71"
       id="circle56" />
    <circle
       cx="357.48001"
       cy="93.440002"
       r="1.63"
       style="fill:#ff6600;stroke:#ff6600;stroke-width:0.71"
       id="circle57" />
    <circle
       cx="375.67999"
       cy="89.339996"
       r="1.63"
       style="fill:#ff6600;stroke:#ff6600;stroke-width:0.71"
       id="circle58" />
    <circle
       cx="408.42001"
       cy="75.449997"
       r="1.63"
       style="fill:#cc6633;stroke:#cc6633;stroke-width:0.71"
       id="circle59" />
    <circle
       cx="404.57999"
       cy="85.25"
       r="1.63"
       style="fill:#0099ff;stroke:#0099ff;stroke-width:0.71"
       id="circle60" />
    <circle
       cx="438.47"
       cy="80.169998"
       r="1.63"
       style="fill:#336633;stroke:#336633;stroke-width:0.71"
       id="circle61" />
    <circle
       cx="437.79001"
       cy="69.43"
       r="1.63"
       style="fill:#336633;stroke:#336633;stroke-width:0.71"
       id="circle62" />
    <circle
       cx="432.14001"
       cy="85.269997"
       r="1.63"
       style="fill:#ff6600;stroke:#ff6600;stroke-width:0.71"
       id="circle63" />
    <text
       x="443.49893"
       y="22.984453"
       text-anchor="end"
       style="font-style:normal;font-variant:normal;font-weight:normal;font-stretch:normal;font-size:9px;font-family:'STIX Two Text';-inkscape-font-specification:'STIX Two Text'"
       id="text63">ρ = 0.63</text>
    <rect
       x="255.17"
       y="14.83"
       width="192.03"
       height="101.84"
       style="stroke:#333333;stroke-width:0.25;stroke-dasharray:none"
       id="rect63" />
    <defs
       id="defs64" />
    <rect
       x="255.17"
       y="141.60001"
       width="192.03"
       height="101.84"
       style="fill:#ffffff;stroke:none;stroke-width:1.07"
       id="rect65" />
    <polyline
       points="250.40,223.84 252.61,223.74 254.82,223.65 257.03,223.55 259.24,223.46 261.45,223.37 263.66,223.27 265.87,223.18 268.07,223.08 270.28,222.99 272.49,222.90 274.70,222.80 276.91,222.71 279.12,222.61 281.33,222.52 283.54,222.43 285.75,222.33 287.96,222.24 290.17,222.14 292.38,222.05 294.59,221.95 296.80,221.86 299.01,221.77 301.22,221.67 303.43,221.58 305.64,221.48 307.85,221.39 310.06,221.30 312.27,221.20 314.48,221.11 316.69,221.01 318.90,220.92 321.11,220.83 323.32,220.73 325.53,220.64 327.74,220.54 329.95,220.45 332.16,220.36 334.37,220.26 336.58,220.17 338.79,220.07 341.00,219.98 343.21,219.89 345.42,219.79 347.63,219.70 349.84,219.60 352.05,219.51 354.26,219.41 356.47,219.32 358.68,219.23 360.89,219.13 363.10,219.04 365.31,218.94 367.52,218.85 369.73,218.76 371.94,218.66 374.15,218.57 376.36,218.47 378.57,218.38 380.78,218.29 382.99,218.19 385.20,218.10 387.41,218.00 389.61,217.91 391.82,217.82 394.03,217.72 396.24,217.63 398.45,217.53 400.66,217.44 402.87,217.35 405.08,217.25 407.29,217.16 409.50,217.06 411.71,216.97 413.92,216.87 416.13,216.78 418.34,216.69 420.55,216.59 422.76,216.50 424.97,216.40 "
       style="stroke:#4d4d4d;stroke-width:0.85;stroke-linecap:butt"
       id="polyline65"
       transform="translate(13.5)" />
    <circle
       cx="272.42001"
       cy="228.50999"
       r="1.63"
       style="fill:#0099ff;stroke:#0099ff;stroke-width:0.71"
       id="circle65" />
    <circle
       cx="263.89999"
       cy="222.78"
       r="1.63"
       style="fill:#0066cc;stroke:#0066cc;stroke-width:0.71"
       id="circle66" />
    <circle
       cx="266.63"
       cy="234.59"
       r="1.63"
       style="fill:#0099ff;stroke:#0099ff;stroke-width:0.71"
       id="circle67" />
    <circle
       cx="274.23999"
       cy="231.96001"
       r="1.63"
       style="fill:#009900;stroke:#009900;stroke-width:0.71"
       id="circle68" />
    <circle
       cx="272.45999"
       cy="231.77"
       r="1.63"
       style="fill:#0099ff;stroke:#0099ff;stroke-width:0.71"
       id="circle69" />
    <circle
       cx="284.42001"
       cy="238.81"
       r="1.63"
       style="fill:#cc6633;stroke:#cc6633;stroke-width:0.71"
       id="circle70" />
    <circle
       cx="292.95999"
       cy="174.23"
       r="1.63"
       style="fill:#3399cc;stroke:#3399cc;stroke-width:0.71"
       id="circle71" />
    <circle
       cx="288.60001"
       cy="219.92"
       r="1.63"
       style="fill:#0066cc;stroke:#0066cc;stroke-width:0.71"
       id="circle72" />
    <circle
       cx="302.01999"
       cy="232.63"
       r="1.63"
       style="fill:#cc6633;stroke:#cc6633;stroke-width:0.71"
       id="circle73" />
    <circle
       cx="323.12"
       cy="222.31"
       r="1.63"
       style="fill:#ff9933;stroke:#ff9933;stroke-width:0.71"
       id="circle74" />
    <circle
       cx="339.63"
       cy="212.21001"
       r="1.63"
       style="fill:#006600;stroke:#006600;stroke-width:0.71"
       id="circle75" />
    <circle
       cx="359.63"
       cy="193.33"
       r="1.63"
       style="fill:#009900;stroke:#009900;stroke-width:0.71"
       id="circle76" />
    <circle
       cx="357.48001"
       cy="225.99001"
       r="1.63"
       style="fill:#ff6600;stroke:#ff6600;stroke-width:0.71"
       id="circle77" />
    <circle
       cx="375.67999"
       cy="226.06"
       r="1.63"
       style="fill:#ff6600;stroke:#ff6600;stroke-width:0.71"
       id="circle78" />
    <circle
       cx="408.42001"
       cy="218.58"
       r="1.63"
       style="fill:#cc6633;stroke:#cc6633;stroke-width:0.71"
       id="circle79" />
    <circle
       cx="404.57999"
       cy="220.87"
       r="1.63"
       style="fill:#0099ff;stroke:#0099ff;stroke-width:0.71"
       id="circle80" />
    <circle
       cx="438.47"
       cy="222.14"
       r="1.63"
       style="fill:#336633;stroke:#336633;stroke-width:0.71"
       id="circle81" />
    <circle
       cx="437.79001"
       cy="215"
       r="1.63"
       style="fill:#336633;stroke:#336633;stroke-width:0.71"
       id="circle82" />
    <circle
       cx="432.14001"
       cy="222.42"
       r="1.63"
       style="fill:#ff6600;stroke:#ff6600;stroke-width:0.71"
       id="circle83" />
    <text
       x="443.49893"
       y="149.75446"
       text-anchor="end"
       style="font-style:normal;font-variant:normal;font-weight:normal;font-stretch:normal;font-size:9px;font-family:'STIX Two Text';-inkscape-font-specification:'STIX Two Text'"
       id="text83">ρ = 0.53</text>
    <rect
       x="255.17"
       y="141.60001"
       width="192.03"
       height="101.84"
       style="stroke:#333333;stroke-width:0.25;stroke-dasharray:none"
       id="rect83" />
    <defs
       id="defs84" />
    <rect
       x="36.360001"
       y="132.45"
       width="192.03"
       height="9.1599998"
       style="fill:#f2f2f2;stroke:none;stroke-width:1.07"
       id="rect85" />
    <text
       x="132.33"
       y="140.315"
       text-anchor="middle"
       style="font-style:normal;font-variant:normal;font-weight:normal;font-stretch:normal;font-size:10px;font-family:'STIX Two Text';-inkscape-font-specification:'STIX Two Text';fill:#1a1a1a"
       id="text85">Photosystem I</text>
    <defs
       id="defs86" />
    <rect
       x="255.17"
       y="132.45"
       width="192.03"
       height="9.1599998"
       style="fill:#f2f2f2;stroke:none;stroke-width:1.07"
       id="rect87" />
    <text
       x="351.13998"
       y="140.31499"
       text-anchor="middle"
       style="font-style:normal;font-variant:normal;font-weight:normal;font-stretch:normal;font-size:10px;font-family:'STIX Two Text';-inkscape-font-specification:'STIX Two Text';fill:#1a1a1a"
       id="text87">Photosystem II</text>
    <defs
       id="defs88" />
    <rect
       x="36.360001"
       y="5.6700001"
       width="192.03"
       height="9.1599998"
       style="fill:#f2f2f2;stroke:none;stroke-width:1.07"
       id="rect89" />
    <text
       x="132.23"
       y="13.560003"
       text-anchor="middle"
       style="font-style:normal;font-variant:normal;font-weight:normal;font-stretch:normal;font-size:10px;font-family:'STIX Two Text';-inkscape-font-specification:'STIX Two Text';fill:#1a1a1a"
       id="text89">Organellar Gene Expression</text>
    <defs
       id="defs90" />
    <rect
       x="255.17"
       y="5.6700001"
       width="192.03"
       height="9.1599998"
       style="fill:#f2f2f2;stroke:none;stroke-width:1.07"
       id="rect91" />
    <text
       x="351.07999"
       y="13.534998"
       text-anchor="middle"
       style="font-style:normal;font-variant:normal;font-weight:normal;font-stretch:normal;font-size:10px;font-family:'STIX Two Text';-inkscape-font-specification:'STIX Two Text';fill:#1a1a1a"
       id="text91">Light &amp; Dark Reaction</text>
    <polyline
       points="84.07,246.18 84.07,243.44 "
       style="stroke:#333333;stroke-width:1.07;stroke-linecap:butt"
       id="polyline91"
       transform="translate(7.5)" />
    <polyline
       points="143.24,246.18 143.24,243.44 "
       style="stroke:#333333;stroke-width:1.07;stroke-linecap:butt"
       id="polyline92"
       transform="translate(7.5)" />
    <polyline
       points="202.42,246.18 202.42,243.44 "
       style="stroke:#333333;stroke-width:1.07;stroke-linecap:butt"
       id="polyline93"
       transform="translate(7.5)" />
    <text
       x="91.601501"
       y="252.5"
       text-anchor="middle"
       style="font-style:normal;font-variant:normal;font-weight:normal;font-stretch:normal;font-size:9px;font-family:'STIX Two Text';-inkscape-font-specification:'STIX Two Text';fill:#4d4d4d"
       id="text93">-0.5</text>
    <text
       x="150.74001"
       y="252.5"
       text-anchor="middle"
       style="font-style:normal;font-variant:normal;font-weight:normal;font-stretch:normal;font-size:9px;font-family:'STIX Two Text';-inkscape-font-specification:'STIX Two Text';fill:#4d4d4d"
       id="text94">0.0</text>
    <text
       x="210.0325"
       y="252.5"
       text-anchor="middle"
       style="font-style:normal;font-variant:normal;font-weight:normal;font-stretch:normal;font-size:9px;font-family:'STIX Two Text';-inkscape-font-specification:'STIX Two Text';fill:#4d4d4d"
       id="text95">0.5</text>
    <polyline
       points="300.23,246.18 300.23,243.44 "
       style="stroke:#333333;stroke-width:1.07;stroke-linecap:butt"
       id="polyline95"
       transform="translate(13.5)" />
    <polyline
       points="363.68,246.18 363.68,243.44 "
       style="stroke:#333333;stroke-width:1.07;stroke-linecap:butt"
       id="polyline96"
       transform="translate(13.5)" />
    <polyline
       points="427.13,246.18 427.13,243.44 "
       style="stroke:#333333;stroke-width:1.07;stroke-linecap:butt"
       id="polyline97"
       transform="translate(13.5)" />
    <text
       x="313.76151"
       y="252.5"
       text-anchor="middle"
       style="font-style:normal;font-variant:normal;font-weight:normal;font-stretch:normal;font-size:9px;font-family:'STIX Two Text';-inkscape-font-specification:'STIX Two Text';fill:#4d4d4d"
       id="text97">-0.5</text>
    <text
       x="377.17999"
       y="252.5"
       text-anchor="middle"
       style="font-style:normal;font-variant:normal;font-weight:normal;font-stretch:normal;font-size:9px;font-family:'STIX Two Text';-inkscape-font-specification:'STIX Two Text';fill:#4d4d4d"
       id="text98">0.0</text>
    <text
       x="440.74249"
       y="252.5"
       text-anchor="middle"
       style="font-style:normal;font-variant:normal;font-weight:normal;font-stretch:normal;font-size:9px;font-family:'STIX Two Text';-inkscape-font-specification:'STIX Two Text';fill:#4d4d4d"
       id="text99">0.5</text>
    <polyline
       points="87.43,119.40 87.43,116.66 "
       style="stroke:#333333;stroke-width:1.07;stroke-linecap:butt"
       id="polyline99"
       transform="translate(7.5)" />
    <polyline
       points="150.87,119.40 150.87,116.66 "
       style="stroke:#333333;stroke-width:1.07;stroke-linecap:butt"
       id="polyline100"
       transform="translate(7.5)" />
    <polyline
       points="214.32,119.40 214.32,116.66 "
       style="stroke:#333333;stroke-width:1.07;stroke-linecap:butt"
       id="polyline101"
       transform="translate(7.5)" />
    <text
       x="94.961502"
       y="125.72"
       text-anchor="middle"
       style="font-style:normal;font-variant:normal;font-weight:normal;font-stretch:normal;font-size:9px;font-family:'STIX Two Text';-inkscape-font-specification:'STIX Two Text';fill:#4d4d4d"
       id="text101">-0.5</text>
    <text
       x="158.37"
       y="125.72"
       text-anchor="middle"
       style="font-style:normal;font-variant:normal;font-weight:normal;font-stretch:normal;font-size:9px;font-family:'STIX Two Text';-inkscape-font-specification:'STIX Two Text';fill:#4d4d4d"
       id="text102">0.0</text>
    <text
       x="221.9325"
       y="125.72"
       text-anchor="middle"
       style="font-style:normal;font-variant:normal;font-weight:normal;font-stretch:normal;font-size:9px;font-family:'STIX Two Text';-inkscape-font-specification:'STIX Two Text';fill:#4d4d4d"
       id="text103">0.5</text>
    <polyline
       points="300.23,119.40 300.23,116.66 "
       style="stroke:#333333;stroke-width:1.07;stroke-linecap:butt"
       id="polyline103"
       transform="translate(13.5)" />
    <polyline
       points="363.68,119.40 363.68,116.66 "
       style="stroke:#333333;stroke-width:1.07;stroke-linecap:butt"
       id="polyline104"
       transform="translate(13.5)" />
    <polyline
       points="427.13,119.40 427.13,116.66 "
       style="stroke:#333333;stroke-width:1.07;stroke-linecap:butt"
       id="polyline105"
       transform="translate(13.5)" />
    <text
       x="313.76151"
       y="125.72"
       text-anchor="middle"
       style="font-style:normal;font-variant:normal;font-weight:normal;font-stretch:normal;font-size:9px;font-family:'STIX Two Text';-inkscape-font-specification:'STIX Two Text';fill:#4d4d4d"
       id="text105">-0.5</text>
    <text
       x="377.17999"
       y="125.72"
       text-anchor="middle"
       style="font-style:normal;font-variant:normal;font-weight:normal;font-stretch:normal;font-size:9px;font-family:'STIX Two Text';-inkscape-font-specification:'STIX Two Text';fill:#4d4d4d"
       id="text106">0.0</text>
    <text
       x="440.74249"
       y="125.72"
       text-anchor="middle"
       style="font-style:normal;font-variant:normal;font-weight:normal;font-stretch:normal;font-size:9px;font-family:'STIX Two Text';-inkscape-font-specification:'STIX Two Text';fill:#4d4d4d"
       id="text107">0.5</text>
    <text
       x="250.24001"
       y="115.4495"
       text-anchor="end"
       style="font-style:normal;font-variant:normal;font-weight:normal;font-stretch:normal;font-size:9px;font-family:'STIX Two Text';-inkscape-font-specification:'STIX Two Text';fill:#4d4d4d"
       id="text108">0.0</text>
    <text
       x="250.24001"
       y="96.163498"
       text-anchor="end"
       style="font-style:normal;font-variant:normal;font-weight:normal;font-stretch:normal;font-size:9px;font-family:'STIX Two Text';-inkscape-font-specification:'STIX Two Text';fill:#4d4d4d"
       id="text109">0.1</text>
    <text
       x="250.24001"
       y="76.886497"
       text-anchor="end"
       style="font-style:normal;font-variant:normal;font-weight:normal;font-stretch:normal;font-size:9px;font-family:'STIX Two Text';-inkscape-font-specification:'STIX Two Text';fill:#4d4d4d"
       id="text110">0.2</text>
    <text
       x="250.24001"
       y="57.591492"
       text-anchor="end"
       style="font-style:normal;font-variant:normal;font-weight:normal;font-stretch:normal;font-size:9px;font-family:'STIX Two Text';-inkscape-font-specification:'STIX Two Text';fill:#4d4d4d"
       id="text111">0.3</text>
    <text
       x="250.24001"
       y="38.319004"
       text-anchor="end"
       style="font-style:normal;font-variant:normal;font-weight:normal;font-stretch:normal;font-size:9px;font-family:'STIX Two Text';-inkscape-font-specification:'STIX Two Text';fill:#4d4d4d"
       id="text112">0.4</text>
    <text
       x="250.24001"
       y="19.010498"
       text-anchor="end"
       style="font-style:normal;font-variant:normal;font-weight:normal;font-stretch:normal;font-size:9px;font-family:'STIX Two Text';-inkscape-font-specification:'STIX Two Text';fill:#4d4d4d"
       id="text113">0.5</text>
    <polyline
       points="238.93,112.61 241.67,112.61 "
       style="stroke:#333333;stroke-width:1.07;stroke-linecap:butt"
       id="polyline113"
       transform="translate(13.5)" />
    <polyline
       points="238.93,93.33 241.67,93.33 "
       style="stroke:#333333;stroke-width:1.07;stroke-linecap:butt"
       id="polyline114"
       transform="translate(13.5)" />
    <polyline
       points="238.93,74.04 241.67,74.04 "
       style="stroke:#333333;stroke-width:1.07;stroke-linecap:butt"
       id="polyline115"
       transform="translate(13.5)" />
    <polyline
       points="238.93,54.75 241.67,54.75 "
       style="stroke:#333333;stroke-width:1.07;stroke-linecap:butt"
       id="polyline116"
       transform="translate(13.5)" />
    <polyline
       points="238.93,35.47 241.67,35.47 "
       style="stroke:#333333;stroke-width:1.07;stroke-linecap:butt"
       id="polyline117"
       transform="translate(13.5)" />
    <polyline
       points="238.93,16.18 241.67,16.18 "
       style="stroke:#333333;stroke-width:1.07;stroke-linecap:butt"
       id="polyline118"
       transform="translate(13.5)" />
    <text
       x="250.24001"
       y="245.3295"
       text-anchor="end"
       style="font-style:normal;font-variant:normal;font-weight:normal;font-stretch:normal;font-size:9px;font-family:'STIX Two Text';-inkscape-font-specification:'STIX Two Text';fill:#4d4d4d"
       id="text118">-0.1</text>
    <text
       x="250.24001"
       y="228.8195"
       text-anchor="end"
       style="font-style:normal;font-variant:normal;font-weight:normal;font-stretch:normal;font-size:9px;font-family:'STIX Two Text';-inkscape-font-specification:'STIX Two Text';fill:#4d4d4d"
       id="text119">0.0</text>
    <text
       x="250.24001"
       y="212.30949"
       text-anchor="end"
       style="font-style:normal;font-variant:normal;font-weight:normal;font-stretch:normal;font-size:9px;font-family:'STIX Two Text';-inkscape-font-specification:'STIX Two Text';fill:#4d4d4d"
       id="text120">0.1</text>
    <text
       x="250.24001"
       y="195.8085"
       text-anchor="end"
       style="font-style:normal;font-variant:normal;font-weight:normal;font-stretch:normal;font-size:9px;font-family:'STIX Two Text';-inkscape-font-specification:'STIX Two Text';fill:#4d4d4d"
       id="text121">0.2</text>
    <text
       x="250.24001"
       y="179.28949"
       text-anchor="end"
       style="font-style:normal;font-variant:normal;font-weight:normal;font-stretch:normal;font-size:9px;font-family:'STIX Two Text';-inkscape-font-specification:'STIX Two Text';fill:#4d4d4d"
       id="text122">0.3</text>
    <text
       x="250.24001"
       y="162.793"
       text-anchor="end"
       style="font-style:normal;font-variant:normal;font-weight:normal;font-stretch:normal;font-size:9px;font-family:'STIX Two Text';-inkscape-font-specification:'STIX Two Text';fill:#4d4d4d"
       id="text123">0.4</text>
    <text
       x="250.24001"
       y="146.2605"
       text-anchor="end"
       style="font-style:normal;font-variant:normal;font-weight:normal;font-stretch:normal;font-size:9px;font-family:'STIX Two Text';-inkscape-font-specification:'STIX Two Text';fill:#4d4d4d"
       id="text124">0.5</text>
    <polyline
       points="238.93,242.49 241.67,242.49 "
       style="stroke:#333333;stroke-width:1.07;stroke-linecap:butt"
       id="polyline124"
       transform="translate(13.5)" />
    <polyline
       points="238.93,225.98 241.67,225.98 "
       style="stroke:#333333;stroke-width:1.07;stroke-linecap:butt"
       id="polyline125"
       transform="translate(13.5)" />
    <polyline
       points="238.93,209.47 241.67,209.47 "
       style="stroke:#333333;stroke-width:1.07;stroke-linecap:butt"
       id="polyline126"
       transform="translate(13.5)" />
    <polyline
       points="238.93,192.96 241.67,192.96 "
       style="stroke:#333333;stroke-width:1.07;stroke-linecap:butt"
       id="polyline127"
       transform="translate(13.5)" />
    <polyline
       points="238.93,176.45 241.67,176.45 "
       style="stroke:#333333;stroke-width:1.07;stroke-linecap:butt"
       id="polyline128"
       transform="translate(13.5)" />
    <polyline
       points="238.93,159.94 241.67,159.94 "
       style="stroke:#333333;stroke-width:1.07;stroke-linecap:butt"
       id="polyline129"
       transform="translate(13.5)" />
    <polyline
       points="238.93,143.43 241.67,143.43 "
       style="stroke:#333333;stroke-width:1.07;stroke-linecap:butt"
       id="polyline130"
       transform="translate(13.5)" />
    <text
       x="31.43"
       y="107.8395"
       text-anchor="end"
       style="font-style:normal;font-variant:normal;font-weight:normal;font-stretch:normal;font-size:9px;font-family:'STIX Two Text';-inkscape-font-specification:'STIX Two Text';fill:#4d4d4d"
       id="text130">0.0</text>
    <text
       x="31.43"
       y="90.129501"
       text-anchor="end"
       style="font-style:normal;font-variant:normal;font-weight:normal;font-stretch:normal;font-size:9px;font-family:'STIX Two Text';-inkscape-font-specification:'STIX Two Text';fill:#4d4d4d"
       id="text131">0.1</text>
    <text
       x="31.43"
       y="72.428497"
       text-anchor="end"
       style="font-style:normal;font-variant:normal;font-weight:normal;font-stretch:normal;font-size:9px;font-family:'STIX Two Text';-inkscape-font-specification:'STIX Two Text';fill:#4d4d4d"
       id="text132">0.2</text>
    <text
       x="31.43"
       y="54.709492"
       text-anchor="end"
       style="font-style:normal;font-variant:normal;font-weight:normal;font-stretch:normal;font-size:9px;font-family:'STIX Two Text';-inkscape-font-specification:'STIX Two Text';fill:#4d4d4d"
       id="text133">0.3</text>
    <text
       x="31.43"
       y="37.013004"
       text-anchor="end"
       style="font-style:normal;font-variant:normal;font-weight:normal;font-stretch:normal;font-size:9px;font-family:'STIX Two Text';-inkscape-font-specification:'STIX Two Text';fill:#4d4d4d"
       id="text134">0.4</text>
    <text
       x="31.43"
       y="19.280499"
       text-anchor="end"
       style="font-style:normal;font-variant:normal;font-weight:normal;font-stretch:normal;font-size:9px;font-family:'STIX Two Text';-inkscape-font-specification:'STIX Two Text';fill:#4d4d4d"
       id="text135">0.5</text>
    <polyline
       points="26.12,105.00 28.86,105.00 "
       style="stroke:#333333;stroke-width:1.07;stroke-linecap:butt"
       id="polyline135"
       transform="translate(7.5)" />
    <polyline
       points="26.12,87.29 28.86,87.29 "
       style="stroke:#333333;stroke-width:1.07;stroke-linecap:butt"
       id="polyline136"
       transform="translate(7.5)" />
    <polyline
       points="26.12,69.58 28.86,69.58 "
       style="stroke:#333333;stroke-width:1.07;stroke-linecap:butt"
       id="polyline137"
       transform="translate(7.5)" />
    <polyline
       points="26.12,51.87 28.86,51.87 "
       style="stroke:#333333;stroke-width:1.07;stroke-linecap:butt"
       id="polyline138"
       transform="translate(7.5)" />
    <polyline
       points="26.12,34.16 28.86,34.16 "
       style="stroke:#333333;stroke-width:1.07;stroke-linecap:butt"
       id="polyline139"
       transform="translate(7.5)" />
    <polyline
       points="26.12,16.45 28.86,16.45 "
       style="stroke:#333333;stroke-width:1.07;stroke-linecap:butt"
       id="polyline140"
       transform="translate(7.5)" />
    <text
       x="31.43"
       y="231.7885"
       text-anchor="end"
       style="font-style:normal;font-variant:normal;font-weight:normal;font-stretch:normal;font-size:9px;font-family:'STIX Two Text';-inkscape-font-specification:'STIX Two Text';fill:#4d4d4d"
       id="text140">0.2</text>
    <text
       x="31.43"
       y="210.14949"
       text-anchor="end"
       style="font-style:normal;font-variant:normal;font-weight:normal;font-stretch:normal;font-size:9px;font-family:'STIX Two Text';-inkscape-font-specification:'STIX Two Text';fill:#4d4d4d"
       id="text141">0.3</text>
    <text
       x="31.43"
       y="188.533"
       text-anchor="end"
       style="font-style:normal;font-variant:normal;font-weight:normal;font-stretch:normal;font-size:9px;font-family:'STIX Two Text';-inkscape-font-specification:'STIX Two Text';fill:#4d4d4d"
       id="text142">0.4</text>
    <text
       x="31.43"
       y="166.88051"
       text-anchor="end"
       style="font-style:normal;font-variant:normal;font-weight:normal;font-stretch:normal;font-size:9px;font-family:'STIX Two Text';-inkscape-font-specification:'STIX Two Text';fill:#4d4d4d"
       id="text143">0.5</text>
    <text
       x="31.43"
       y="145.27301"
       text-anchor="end"
       style="font-style:normal;font-variant:normal;font-weight:normal;font-stretch:normal;font-size:9px;font-family:'STIX Two Text';-inkscape-font-specification:'STIX Two Text';fill:#4d4d4d"
       id="text144">0.6</text>
    <polyline
       points="26.12,228.94 28.86,228.94 "
       style="stroke:#333333;stroke-width:1.07;stroke-linecap:butt"
       id="polyline144"
       transform="translate(7.5)" />
    <polyline
       points="26.12,207.31 28.86,207.31 "
       style="stroke:#333333;stroke-width:1.07;stroke-linecap:butt"
       id="polyline145"
       transform="translate(7.5)" />
    <polyline
       points="26.12,185.68 28.86,185.68 "
       style="stroke:#333333;stroke-width:1.07;stroke-linecap:butt"
       id="polyline146"
       transform="translate(7.5)" />
    <polyline
       points="26.12,164.05 28.86,164.05 "
       style="stroke:#333333;stroke-width:1.07;stroke-linecap:butt"
       id="polyline147"
       transform="translate(7.5)" />
    <polyline
       points="26.12,142.42 28.86,142.42 "
       style="stroke:#333333;stroke-width:1.07;stroke-linecap:butt"
       id="polyline148"
       transform="translate(7.5)" />
    <text
       x="241.57999"
       y="269.30597"
       text-anchor="middle"
       id="text148"
       style="font-style:normal;font-variant:normal;font-weight:normal;font-stretch:normal;font-size:10px;font-family:'STIX Two Text';-inkscape-font-specification:'STIX Two Text, Normal';font-variant-ligatures:normal;font-variant-caps:normal;font-variant-numeric:normal;font-variant-east-asian:normal;text-anchor:middle;white-space:pre">Pearson Residues of CP29A</text>
    <text
       transform="rotate(-90)"
       text-anchor="middle"
       style="font-style:normal;font-variant:normal;font-weight:normal;font-stretch:normal;font-size:10px;font-family:'STIX Two Text';-inkscape-font-specification:'STIX Two Text'"
       id="text149"
       x="-129.125"
       y="14.17">Module Score</text>
    <text
       x="146.64388"
       y="278.49548"
       style="font-style:normal;font-variant:normal;font-weight:600;font-stretch:normal;font-size:10px;font-family:'STIX Two Text';-inkscape-font-specification:'STIX Two Text, Semi-Bold';font-variant-ligatures:normal;font-variant-caps:normal;font-variant-numeric:normal;font-variant-east-asian:normal;white-space:pre"
       id="text150">Domain</text>
    <circle
       cx="149.16411"
       cy="291.91919"
       r="1.63"
       style="fill:#3399cc;stroke:#3399cc;stroke-width:0.71"
       id="circle151" />
    <circle
       cx="186.02411"
       cy="291.91919"
       r="1.63"
       style="fill:#006600;stroke:#006600;stroke-width:0.71"
       id="circle153" />
    <circle
       cx="222.13411"
       cy="291.91919"
       r="1.63"
       style="fill:#009900;stroke:#009900;stroke-width:0.71"
       id="circle155" />
    <circle
       cx="255.7841"
       cy="291.91919"
       r="1.63"
       style="fill:#cc6633;stroke:#cc6633;stroke-width:0.71"
       id="circle157" />
    <text
       x="160.31412"
       y="294.86218"
       style="font-style:normal;font-variant:normal;font-weight:normal;font-stretch:normal;font-size:9px;font-family:'STIX Two Text';-inkscape-font-specification:'STIX Two Text, Normal';font-variant-ligatures:normal;font-variant-caps:small-caps;font-variant-numeric:normal;font-variant-east-asian:normal;white-space:pre"
       id="text159">WUS</text>
    <text
       x="197.17412"
       y="294.86218"
       style="font-style:normal;font-variant:normal;font-weight:normal;font-stretch:normal;font-size:9px;font-family:'STIX Two Text';-inkscape-font-specification:'STIX Two Text, Normal';font-variant-ligatures:normal;font-variant-caps:small-caps;font-variant-numeric:normal;font-variant-east-asian:normal;white-space:pre"
       id="text161">As1</text>
    <text
       x="233.28412"
       y="294.86218"
       style="font-style:normal;font-variant:normal;font-weight:normal;font-stretch:normal;font-size:9px;font-family:'STIX Two Text';-inkscape-font-specification:'STIX Two Text, Normal';font-variant-ligatures:normal;font-variant-caps:small-caps;font-variant-numeric:normal;font-variant-east-asian:normal;white-space:pre"
       id="text163">Fil</text>
    <text
       x="266.92413"
       y="294.86218"
       style="font-style:normal;font-variant:normal;font-weight:normal;font-stretch:normal;font-size:9px;font-family:'STIX Two Text';-inkscape-font-specification:'STIX Two Text, Normal';font-variant-ligatures:normal;font-variant-caps:small-caps;font-variant-numeric:normal;font-variant-east-asian:normal;white-space:pre"
       id="text165">Ptl</text>
    <circle
       cx="149.16411"
       cy="284.15918"
       r="1.63"
       style="fill:#0099ff;stroke:#0099ff;stroke-width:0.71"
       id="circle150" />
    <circle
       cx="186.02411"
       cy="284.15918"
       r="1.63"
       style="fill:#0066cc;stroke:#0066cc;stroke-width:0.71"
       id="circle152" />
    <circle
       cx="222.13411"
       cy="284.15918"
       r="1.63"
       style="fill:#336633;stroke:#336633;stroke-width:0.71"
       id="circle154" />
    <circle
       cx="255.7841"
       cy="284.15918"
       r="1.63"
       style="fill:#ff6600;stroke:#ff6600;stroke-width:0.71"
       id="circle156" />
    <circle
       cx="289.4241"
       cy="284.15918"
       r="1.63"
       style="fill:#ff9933;stroke:#ff9933;stroke-width:0.71"
       id="circle158" />
    <text
       x="160.31412"
       y="287.11118"
       style="font-style:normal;font-variant:normal;font-weight:normal;font-stretch:normal;font-size:9px;font-family:'STIX Two Text';-inkscape-font-specification:'STIX Two Text, Normal';font-variant-ligatures:normal;font-variant-caps:small-caps;font-variant-numeric:normal;font-variant-east-asian:normal;white-space:pre"
       id="text158">Clv3</text>
    <text
       x="197.17412"
       y="287.11118"
       style="font-style:normal;font-variant:normal;font-weight:normal;font-stretch:normal;font-size:9px;font-family:'STIX Two Text';-inkscape-font-specification:'STIX Two Text, Normal';font-variant-ligatures:normal;font-variant-caps:small-caps;font-variant-numeric:normal;font-variant-east-asian:normal;white-space:pre"
       id="text160">UFO'</text>
    <text
       x="233.28412"
       y="287.11118"
       style="font-style:normal;font-variant:normal;font-weight:normal;font-stretch:normal;font-size:9px;font-family:'STIX Two Text';-inkscape-font-specification:'STIX Two Text, Normal';font-variant-ligatures:normal;font-variant-caps:small-caps;font-variant-numeric:normal;font-variant-east-asian:normal;white-space:pre"
       id="text162">As2</text>
    <text
       x="266.92413"
       y="287.11118"
       style="font-style:normal;font-variant:normal;font-weight:normal;font-stretch:normal;font-size:9px;font-family:'STIX Two Text';-inkscape-font-specification:'STIX Two Text, Normal';font-variant-ligatures:normal;font-variant-caps:small-caps;font-variant-numeric:normal;font-variant-east-asian:normal;white-space:pre"
       id="text164">Las</text>
    <text
       x="300.5741"
       y="287.11118"
       style="font-style:normal;font-variant:normal;font-weight:normal;font-stretch:normal;font-size:9px;font-family:'STIX Two Text';-inkscape-font-specification:'STIX Two Text, Normal';font-variant-ligatures:normal;font-variant-caps:small-caps;font-variant-numeric:normal;font-variant-east-asian:normal;white-space:pre"
       id="text166">Atml1</text>
  </g>
</svg>
